<mxfile
  host="Electron" 
  agent="Mozilla/5.0 (Macintosh; Intel Mac OS X 10_15_7) AppleWebKit/537.36 (KHTML, like Gecko) draw.io/25.0.2 Chrome/128.0.6613.186 Electron/32.2.5 Safari/537.36" 
  version="25.0.2"
  >
  <diagram
    name="-"
    >
    <mxGraphModel
      grid="1" 
      gridSize="10" 
      guides="1" 
      tooltips="1" 
      connect="1" 
      arrows="1" 
      fold="1" 
      page="1" 
      pageScale="1" 
      pageWidth="1" 
      pageHeight="1" 
      math="0" 
      shadow="0"
      >
      <root>
        <mxCell
          id="page"
          />
        <mxCell
          id="root" 
          parent="page"
          />
        <mxCell
          style="verticalAlign=top;aspect=fixed;align=center;spacingLeft=5;spacingRight=5;spacingBottom=5;strokeColor=none;" 
          id="shape_" 
          parent="root" 
          value=" " 
          vertex="1"
          >
          <mxGeometry
            as="geometry" 
            width="92" 
            height="100" 
            x="0" 
            y="0"
            />
          </mxCell>
        <mxCell
          style="rounded=1;whiteSpace=wrap;verticalAlign=top;align=center;editableCssRules=.*;html=1;shape=image;verticalLabelPosition=bottom;labelBackgroundColor=#ffffff;aspect=fixed;imageAspect=0;image=data:image/svg+xml,PHN2ZyB4bWxucz0iaHR0cDovL3d3dy53My5vcmcvMjAwMC9zdmciIHhtbG5zOnY9Imh0dHBzOi8vdmVjdGEuaW8vbmFubyIgd2lkdGg9IjE2LjAwMDAwNzYyOTM5NDUzIiBoZWlnaHQ9IjE5LjgzNjQ5NDQ0NTgwMDc4IiB2aWV3Qm94PSItMC4wMDAwMDY3MzA4MDY0ODk5NDA3MzMgMC4wMDAzMTcxNzE4ODUzOTkxNDc4NyAxNi4wMDAwMDc2MjkzOTQ1MyAxOS44MzY0OTQ0NDU4MDA3OCI+JiN4YTsJPHN0eWxlIHR5cGU9InRleHQvY3NzIj4mI3hhOwkuc3Qwe2ZpbGw6IzQyODVmNDt9JiN4YTsJLnN0MXtmaWxsOiM2NjlkZjY7fSYjeGE7CTwvc3R5bGU+JiN4YTsJPHBhdGggY2xhc3M9InN0MCIgZD0iTTggOS45NzFsLTgtNHY2Ljc2YS40OS40OSAwIDAgMCAuMTkuMzlsNC42NCAyLjc1YS4zMi4zMiAwIDAgMSAuMTcuMjl2My41MWEuMTcuMTcgMCAwIDAgLjI2LjE0bDEwLjUxLTYuNjlhLjUuNSAwIDAgMCAuMjMtLjQydi02LjczeiIvPiYjeGE7CTxwYXRoIGNsYXNzPSJzdDEiIGQ9Ik04IDcuOTcxbDgtNEw4LjEyLjAzMWEuMjUuMjUgMCAwIDAtLjI0IDBMMCAzLjk3MXoiLz4mI3hhOzwvc3ZnPg;strokeColor=none;" 
          id="dialogflow_" 
          parent="shape_" 
          value=" " 
          vertex="1"
          >
          <mxGeometry
            width="32" 
            height="40" 
            as="geometry" 
            x="30" 
            y="30"
            />
          </mxCell>
        </root>
      </mxGraphModel>
    </diagram>
  </mxfile>